# xmcd
# 
# Track frame offsets:
#     183
#     17400
#     39035
#     56028
#     72970
#     96073
#     113828
#     133260
#     148688
#     165475
#     182730
#     208100
#     230368
#     250695
# 
# Disc length: 3558
# 
# Revision: 4
# Processed by: cddbd v1.5.2PL0 Copyright (c) Steve Scherf et al.
# Submitted via: BonkEnc v1.0.6
# 
DISCID=ba0de40e
DTITLE=Demis Roussos - The Best Of
DYEAR=0
DGENRE=Other
TTITLE0=Quand je t'aime
TTITLE1=We Shall dance
TTITLE2=Forever and ever
TTITLE3=End of the world
TTITLE4=My reason
TTITLE5=Goodbye my love goodbye
TTITLE6=Mourir auprès de mon amour
TTITLE7=Rain and tears
TTITLE8=I want to live
TTITLE9=It's five o' clock
TTITLE10=My friend the wind
TTITLE11=Spring summer winter and fall
TTITLE12=Marie jolie
TTITLE13=Lovely lady of Arcadia
EXTD=(P) and (C) Flarenasch 1988\n ID3G:  12
EXTT0=
EXTT1=
EXTT2=
EXTT3=
EXTT4=
EXTT5=
EXTT6=
EXTT7=
EXTT8=
EXTT9=
EXTT10=
EXTT11=
EXTT12=
EXTT13=
PLAYORDER=
